<svg xmlns="http://www.w3.org/2000/svg" version="1.1" xmlns:xlink="http://www.w3.org/1999/xlink" xmlns:svgjs="http://svgjs.dev/svgjs" width="1500" height="1500" viewBox="0 0 1500 1500"><rect width="1500" height="1500" fill="#ffffff"></rect><g transform="matrix(0.6666666666666666,0,0,0.6666666666666666,249.39393939393938,624.4686038749829)"><svg viewBox="0 0 396 99" data-background-color="#ffffff" preserveAspectRatio="xMidYMid meet" height="375" width="1500" xmlns="http://www.w3.org/2000/svg" xmlns:xlink="http://www.w3.org/1999/xlink"><g id="tight-bounds" transform="matrix(1,0,0,1,0.2400000000000091,0.21043286550676044)"><svg viewBox="0 0 395.52 98.57913426898648" height="98.57913426898648" width="395.52"><g><svg viewBox="0 0 558.4980329695674 139.19966773126978" height="98.57913426898648" width="395.52"><g transform="matrix(1,0,0,1,0,19.238159577910658)"><svg viewBox="0 0 395.52 100.72334857544847" height="100.72334857544847" width="395.52"><g id="textblocktransform"><svg viewBox="0 0 395.52 100.72334857544847" height="100.72334857544847" width="395.52" id="textblock"><g><svg viewBox="0 0 395.52 100.72334857544847" height="100.72334857544847" width="395.52"><g transform="matrix(1,0,0,1,0,0)"><svg width="395.52" viewBox="4.5 -35.6 142.14 36.2" height="100.72334857544847" data-palette-color="#000000"><path d="M29.35-1.5L24.9 0.6 20.55-8.9Q18.9-12.45 16.4-13.95 13.9-15.45 10-15.45L10-15.45 9.25-15.45 9.25 0 4.5 0 4.5-34.9Q7.15-35.15 9.58-35.27 12-35.4 14.75-35.4L14.75-35.4Q21.15-35.4 24.38-32.8 27.6-30.2 27.6-26.1L27.6-26.1Q27.6-22.45 25.43-20.23 23.25-18 19.15-16.9L19.15-16.9Q20.5-16.3 21.55-15.48 22.6-14.65 23.58-13.28 24.55-11.9 25.55-9.7L25.55-9.7 29.35-1.5ZM9.25-31.2L9.25-19.45 14.75-19.45Q18.35-19.45 20.6-21.05 22.85-22.65 22.85-25.65L22.85-25.65Q22.85-28.15 20.75-29.78 18.65-31.4 14.75-31.4L14.75-31.4Q13.05-31.4 11.7-31.35 10.35-31.3 9.25-31.2L9.25-31.2ZM56.35 0L35.35 0 35.35-35 56.35-35 56.35-30.9 40.1-30.9 40.1-20.25 54.1-20.25 54.1-16.25 40.1-16.25 40.1-4.1 56.35-4.1 56.35 0ZM84.09 0L63.09 0 63.09-35 84.09-35 84.09-30.9 67.84-30.9 67.84-20.25 81.84-20.25 81.84-16.25 67.84-16.25 67.84-4.1 84.09-4.1 84.09 0ZM95.59 0L90.84 0 90.84-35 111.59-35 111.59-30.9 95.59-30.9 95.59-20.2 108.94-20.2 108.94-16.3 95.59-16.3 95.59 0ZM130.09 0.6L130.09 0.6Q126.19 0.6 123.14-0.83 120.09-2.25 117.97-4.73 115.84-7.2 114.72-10.5 113.59-13.8 113.59-17.55L113.59-17.55Q113.59-22.7 115.56-26.78 117.54-30.85 121.24-33.23 124.94-35.6 130.09-35.6L130.09-35.6Q133.94-35.6 137.02-34.2 140.09-32.8 142.24-30.3 144.39-27.8 145.52-24.55 146.64-21.3 146.64-17.55L146.64-17.55Q146.64-13.8 145.52-10.5 144.39-7.2 142.24-4.73 140.09-2.25 137.04-0.83 133.99 0.6 130.09 0.6ZM130.09-3.5L130.09-3.5Q133.94-3.5 136.54-5.35 139.14-7.2 140.47-10.38 141.79-13.55 141.79-17.55L141.79-17.55Q141.79-20.25 140.99-22.75 140.19-25.25 138.69-27.23 137.19-29.2 135.02-30.35 132.84-31.5 130.09-31.5L130.09-31.5Q126.44-31.5 123.81-29.65 121.19-27.8 119.81-24.65 118.44-21.5 118.44-17.55L118.44-17.55Q118.44-14.85 119.22-12.33 119.99-9.8 121.49-7.8 122.99-5.8 125.17-4.65 127.34-3.5 130.09-3.5Z" opacity="1" transform="matrix(1,0,0,1,0,0)" fill="#000000" class="wordmark-text-0" data-fill-palette-color="primary" id="text-0"></path></svg></g></svg></g></svg></g></svg></g><g transform="matrix(1,0,0,1,419.29836523829755,0)"><svg viewBox="0 0 139.19966773126978 139.19966773126978" height="139.19966773126978" width="139.19966773126978"><g data-palette-color="#39b583"><rect width="38.047909179880406" height="139.19966773126978" fill="#39b583" stroke="transparent" data-fill-palette-color="accent" x="0" fill-opacity="1"></rect><rect width="38.047909179880406" height="139.19966773126978" fill="#39b583" stroke="transparent" data-fill-palette-color="accent" x="46.39988924375659" fill-opacity="0.75"></rect><rect width="38.047909179880406" height="139.19966773126978" fill="#39b583" stroke="transparent" data-fill-palette-color="accent" x="92.79977848751318" fill-opacity="0.5"></rect></g></svg></g></svg></g><defs></defs></svg><rect width="395.52" height="98.57913426898648" fill="none" stroke="none" visibility="hidden"></rect></g></svg></g></svg>